<svg width="73" height="112" viewBox="0 0 73 112" fill="none" xmlns="http://www.w3.org/2000/svg">
<path d="M2.4112 110.826L2.40732 110.825C1.5576 110.473 1 109.64 1 108.717V3.28125C1 2.01988 2.01988 1 3.28125 1H68.9062C70.1676 1 71.1875 2.01982 71.1877 3.28125C71.1877 3.28129 71.1877 3.28133 71.1877 3.28137V108.718C71.1877 109.64 70.6301 110.473 69.7804 110.825L69.775 110.827C68.9531 111.173 67.9582 110.995 67.2935 110.33C64.5599 107.597 60.1277 107.597 57.3942 110.33C56.5031 111.222 55.0596 111.222 54.1685 110.33C51.4349 107.597 47.0027 107.597 44.2692 110.33C43.3781 111.222 41.9346 111.222 41.0435 110.33C38.3099 107.597 33.8777 107.597 31.1442 110.33C30.2531 111.222 28.8096 111.222 27.9185 110.33C25.1849 107.597 20.7527 107.597 18.0192 110.33C17.1281 111.222 15.6846 111.222 14.7935 110.33C12.06 107.597 7.62781 107.597 4.89421 110.33C4.23759 110.987 3.25263 111.178 2.4112 110.826Z" fill="url(#paint0_linear_609_470)" stroke="url(#paint1_linear_609_470)" stroke-width="2"/>
<path d="M36.094 35.303C34.2867 35.303 32.8127 33.8321 32.8127 32.0217C32.8127 30.2114 34.2867 28.7405 36.094 28.7405C37.9013 28.7405 39.3752 30.2114 39.3752 32.0217C39.3752 33.8354 40.8428 35.303 42.6565 35.303C44.4701 35.303 45.9377 33.8354 45.9377 32.0217C45.9377 27.7495 43.1867 24.1415 39.3752 22.7824V18.8967C39.3752 17.0831 37.9076 15.6155 36.094 15.6155C34.2803 15.6155 32.8127 17.0831 32.8127 18.8967V22.7824C29.0012 24.1415 26.2502 27.7495 26.2502 32.0217C26.2502 37.4498 30.6659 41.8655 36.094 41.8655C37.9013 41.8655 39.3752 43.3364 39.3752 45.1467C39.3752 46.9571 37.9013 48.428 36.094 48.428C34.2867 48.428 32.8127 46.9571 32.8127 45.1467C32.8127 43.3331 31.3451 41.8655 29.5315 41.8655C27.7178 41.8655 26.2502 43.3331 26.2502 45.1467C26.2502 49.4189 29.0012 53.027 32.8127 54.3861V58.2717C32.8127 60.0854 34.2803 61.553 36.094 61.553C37.9076 61.553 39.3752 60.0854 39.3752 58.2717V54.3861C43.1867 53.0272 45.9377 49.4189 45.9377 45.1467C45.9377 39.7187 41.5223 35.303 36.094 35.303ZM36.094 68.1155H16.4065C14.5928 68.1155 13.1252 69.5831 13.1252 71.3967C13.1252 73.2104 14.5928 74.678 16.4065 74.678H36.094C37.9076 74.678 39.3752 73.2104 39.3752 71.3967C39.3752 69.5831 37.9076 68.1155 36.094 68.1155ZM36.094 81.2405H16.4065C14.5928 81.2405 13.1252 82.7081 13.1252 84.5217C13.1252 86.3354 14.5928 87.803 16.4065 87.803H36.094C37.9076 87.803 39.3752 86.3354 39.3752 84.5217C39.3752 82.7081 37.9076 81.2405 36.094 81.2405ZM49.219 74.678H55.7815C57.5951 74.678 59.0627 73.2104 59.0627 71.3967C59.0627 69.5831 57.5951 68.1155 55.7815 68.1155H49.219C47.4053 68.1155 45.9377 69.5831 45.9377 71.3967C45.9377 73.2104 47.4053 74.678 49.219 74.678ZM55.7815 81.2405H49.219C47.4053 81.2405 45.9377 82.7081 45.9377 84.5217C45.9377 86.3354 47.4053 87.803 49.219 87.803H55.7815C57.5951 87.803 59.0627 86.3354 59.0627 84.5217C59.0627 82.7081 57.5951 81.2405 55.7815 81.2405Z" fill="white"/>
<defs>
<linearGradient id="paint0_linear_609_470" x1="36.0939" y1="-42.8026" x2="36.0939" y2="149.452" gradientUnits="userSpaceOnUse">
<stop offset="0.630208" stop-color="#FFAE00"/>
<stop offset="1" stop-color="#FFCD1E"/>
</linearGradient>
<linearGradient id="paint1_linear_609_470" x1="36.0939" y1="0" x2="36.0939" y2="112" gradientUnits="userSpaceOnUse">
<stop stop-color="#FF9F00"/>
<stop offset="1" stop-color="#FFB800"/>
</linearGradient>
</defs>
</svg>
